<svg xmlns="http://www.w3.org/2000/svg" xmlns:xlink="http://www.w3.org/1999/xlink" viewBox="0 0 30 26"><path d="M 7.938 2.322 L 5.247 3.243 L 3.253 5.336 L 1.958 8.727 L 2.237 10.236 L 4.468 10.236 L 4.242 9.012 L 5.129 6.69 L 6.494 5.256 L 8.337 4.625 L 10.911 4.877 L 12.658 5.998 L 13.828 7.899 L 14.116 10.236 L 16.342 10.236 L 15.956 7.102 L 14.247 4.327 L 11.697 2.69 Z M 23.595 14.823 L 12.806 14.876 L 13.004 12.057 L 22.962 12.287 L 28.208 12.11 L 27.866 12.805 L 27.715 13.495 L 27.941 14.186 L 28.167 14.818 Z M 20.924 16.367 L 12.785 16.314 L 12.934 19.134 L 20.514 19.421 L 28.187 19.249 L 28.066 16.314 L 26.175 16.406 Z M 20.047 23.626 L 28.187 23.679 L 28.037 20.86 L 20.525 21.09 L 12.785 20.744 L 12.906 23.679 L 14.796 23.587 Z" fill="rgb(255,255,255)"></path></svg>